<?xml version="1.0" encoding="UTF-8" standalone="no"?>
<!-- Created with Inkscape (http://www.inkscape.org/) -->
<svg xmlns:rdf="http://www.w3.org/1999/02/22-rdf-syntax-ns#" xmlns="http://www.w3.org/2000/svg" xmlns:cc="http://creativecommons.org/ns#" xmlns:xlink="http://www.w3.org/1999/xlink" xmlns:dc="http://purl.org/dc/elements/1.1/" xmlns:svg="http://www.w3.org/2000/svg" xmlns:inkscape="http://www.inkscape.org/namespaces/inkscape" xmlns:sodipodi="http://sodipodi.sourceforge.net/DTD/sodipodi-0.dtd" xmlns:ns1="http://sozi.baierouge.fr" id="svg4723" viewBox="0 0 701.81 664.45" version="1.1" inkscape:version="0.91 r13725">
  <defs id="defs3">
    <filter id="filter4142-4" color-interpolation-filters="sRGB">
      <feGaussianBlur id="feGaussianBlur4144-8" stdDeviation="3.9708581"/>
    </filter>
    <linearGradient id="linearGradient4218" y2="5949.9" gradientUnits="userSpaceOnUse" x2="949.36" y1="6118.6" x1="949.36">
      <stop id="stop4208" style="stop-color:#000080" offset="0"/>
      <stop id="stop4210" style="stop-color:#000080;stop-opacity:0" offset="1"/>
    </linearGradient>
    <linearGradient id="linearGradient4200" y2="4696.8" gradientUnits="userSpaceOnUse" x2="1475.8" gradientTransform="translate(-13.385 1000.2)" y1="5124.3" x1="1480.3">
      <stop id="stop3976-0" style="stop-color:#000000" offset="0"/>
      <stop id="stop3978-9" style="stop-color:#000000;stop-opacity:0" offset="1"/>
    </linearGradient>
    <linearGradient id="linearGradient4178" y2="4602.6" gradientUnits="userSpaceOnUse" x2="1469.1" y1="4807.4" x1="1471.4">
      <stop id="stop3964-6" style="stop-color:#ffffff" offset="0"/>
      <stop id="stop3966-6" style="stop-color:#ffffff;stop-opacity:0" offset="1"/>
    </linearGradient>
    <filter id="filter3958-9" color-interpolation-filters="sRGB">
      <feGaussianBlur id="feGaussianBlur3960-35" stdDeviation="3.7445471"/>
    </filter>
    <filter id="filter3997-1" color-interpolation-filters="sRGB">
      <feGaussianBlur id="feGaussianBlur3999-5" stdDeviation="3.0873328"/>
    </filter>
    <linearGradient id="linearGradient4195" y2="4800.3" xlink:href="#linearGradient4001-6" gradientUnits="userSpaceOnUse" x2="1509.5" gradientTransform="translate(-11.135 1000.2)" y1="4492.1" x1="1509.5"/>
    <linearGradient id="linearGradient4001-6">
      <stop id="stop4003-7" style="stop-color:#ffffff" offset="0"/>
      <stop id="stop4005-1" style="stop-color:#ffffff;stop-opacity:0" offset="1"/>
    </linearGradient>
    <linearGradient id="linearGradient5432" y2="5150.9" gradientUnits="userSpaceOnUse" x2="1492.1" gradientTransform="matrix(1.033 0 0 2.2649 -61.63 -5813.7)" y1="4909.8" x1="1499">
      <stop id="stop4056-8" style="stop-color:#ffffff" offset="0"/>
      <stop id="stop4058-3" style="stop-color:#ffffff;stop-opacity:0" offset="1"/>
    </linearGradient>
  </defs>
  <g id="layer1" transform="translate(-31.952 -35.692)">
    <g id="g5366" transform="matrix(1.5475 0 0 1.5475 -1921.1 -8344.4)">
      <path id="path4160" style="filter:url(#filter4142-4);fill:#000000" d="m1643.8 5440c-107.63 0.2706-215.28-0.275-322.91 0.3126-24.048 2.4514-42.319 26.789-39.122 50.625 0.3482 99.151-0.7236 198.35 0.5904 297.47 3.5874 23.083 27.309 39.961 50.344 36.906 106.3-0.2637 212.65 0.5529 318.91-0.4368 23.556-3.0737 40.992-27.078 37.904-50.469-0.2579-98.768 0.5433-197.56-0.4045-296.31-2.856-21.558-23.496-39.065-45.313-38.094z"/>
      <g id="g4214" transform="translate(521.93 -346.45)">
        <path id="path4162" style="fill:#0000ff" d="m802.66 5784.8h318.39c22.106 0 39.903 17.797 39.903 39.903v295.89c0 22.106-17.797 39.903-39.903 39.903h-318.39c-22.106 0-39.903-17.797-39.903-39.903v-295.89c0-22.106 17.797-39.903 39.903-39.903z"/>
        <path id="path4204" style="fill:url(#linearGradient4218)" d="m802.66 5784.8h318.39c22.106 0 39.903 17.797 39.903 39.903v295.89c0 22.106-17.797 39.903-39.903 39.903h-318.39c-22.106 0-39.903-17.797-39.903-39.903v-295.89c0-22.106 17.797-39.903 39.903-39.903z"/>
      </g>
      <path id="path4164" style="fill:url(#linearGradient4200)" d="m1322.3 5438.4h318.39c22.106 0 39.903 17.797 39.903 39.903v295.89c0 22.106-17.797 39.903-39.903 39.903h-318.39c-22.106 0-39.903-17.797-39.903-39.903v-295.89c0-22.106 17.797-39.903 39.903-39.903z"/>
      <path id="path4166" style="opacity:0.88;filter:url(#filter3958-9);fill:url(#linearGradient4178)" d="m1655.5 4444.8c-4.793 0.5602-1.703 5.5631 1.7187 5.6875 18.515 7.8774 28.751 29.128 25.711 48.75-0.5387 89.326 1.237 178.71-1.0238 268-4.5621 21.944-28.442 36.766-50.219 33.153-96.339-0.5175-192.72 1.1117-289.03-0.9341-17.224-3.4141-30.038-18.915-33.474-35.615-2.4992-9.4552-4.5365 1.9534-4.1674 6.0214-0.9617 11.387 2.9521 23.441 12.579 30.125 9.322 7.6329 21.992 8.3985 33.5 7.1186 104.33-0.3933 208.7 0.892 313-0.7436 18.474-4.0375 29.092-24.974 25.465-42.75-0.5424-97.886 1.1097-195.85-0.9028-293.69-3.5787-14.574-18.078-25.681-33.156-25.125zm-322.56 0.4375c-19.294 2.3707-31.84 23.648-28.092 42.125 0.5441 10.149-1.013 20.746 0.8727 30.609 1.7428 6.6781 4.5781-3.6467 3.8752-6.6402 0.4203-15.714-2.9176-33.723 7.9063-46.812 6.2555-9.2117 16.709-13.421 26.187-18.438-3.582-0.394-7.1305-1.1153-10.75-0.8437z" transform="matrix(-1 0 0 -1 2981 10248)"/>
      <path id="path4168" style="opacity:0.88;filter:url(#filter3997-1);fill:#550000" d="m1587.1 5534.2c-9.9623-9.9623-26.008-9.9623-35.97 0l-59.47 59.47-59.469-59.47c-9.9623-9.9623-26.008-9.9623-35.97 0-9.9622 9.9622-9.9622 26.008 0 35.97l59.47 59.469-59.469 59.469c-9.9623 9.9623-9.9623 26.008 0 35.97 9.9622 9.9622 26.008 9.9622 35.97 0l59.469-59.469 59.469 59.469c9.9623 9.9622 26.008 9.9622 35.97 0 9.9623-9.9623 9.9623-26.008 0-35.97l-59.469-59.469 59.47-59.469c9.9622-9.9623 9.9622-26.008 0-35.97z"/>
      <path id="path4170" style="opacity:0.88;fill:url(#linearGradient4195)" d="m1584.8 5534.2c-9.9623-9.9623-26.008-9.9623-35.97 0l-59.47 59.47-59.469-59.47c-9.9623-9.9623-26.008-9.9623-35.97 0-9.9622 9.9622-9.9622 26.008 0 35.97l59.47 59.469-59.469 59.469c-9.9623 9.9623-9.9623 26.008 0 35.97 9.9622 9.9622 26.008 9.9622 35.97 0l59.469-59.469 59.469 59.469c9.9623 9.9622 26.008 9.9622 35.97 0 9.9623-9.9623 9.9623-26.008 0-35.97l-59.469-59.469 59.47-59.469c9.9622-9.9623 9.9622-26.008 0-35.97z"/>
      <path id="path4172" style="opacity:0.88;fill:url(#linearGradient4195)" d="m1410.9 5533.4c-12.888 0.3243-22.574 16.226-15.281 27.375 7.0541 11.092 18.609 18.701 27.304 28.572 13.377 13.362 26.595 26.884 40.04 40.178-22.267 23.429-46.793 45.005-67.875 69.281-6.5945 12.425 5.1702 29.536 19.219 26.844 12.689-2.6098 19.206-15.339 28.552-23.114 15.51-15.508 31.011-31.025 46.542-46.511 23.524 22.354 45.11 46.963 69.594 68.094 12.603 6.2831 29.728-5.976 26.406-20.156-3.2457-12.593-15.821-19.025-23.696-28.54-15.272-15.274-30.553-30.54-45.804-45.835 22.289-23.4 46.802-45.024 67.906-69.344 6.6995-12.773-5.7763-30.049-20.156-26.594-12.217 3.1254-18.504 15.43-27.735 23.016-15.481 15.477-30.95 30.966-46.453 46.422-23.51-22.298-45.063-47.084-69.656-68.031-2.7314-1.3811-5.8614-1.921-8.9062-1.6563z"/>
      <path id="path4174" style="fill:url(#linearGradient5432)" d="m1642 5455.8c-90.204 3.2725-180.74-0.68-271.07 1.2972-18.119 0.6095-36.806 0.4567-54.557 2.2341-10.165 13.748-8.6445 31.704-9.5996 47.812 0.8718 53.008 0.3556 106.02 0.4315 159.03 23.025 33.736 49.072 68.766 88.033 85.844 18.443 7.3697 40.142 3.365 55.488-8.512 36.14-22.734 64.935-53.962 98.746-79.673 29.849-26.378 61.21-55.2 102.1-63.326 3.5596-0.5141 8.1473 0.021 6.182-5.0206-0.582-43.09 4.4498-86.878-4.618-129.38-1.8824-4.5276-5.1261-10.851-11.137-10.312z"/>
    </g>
  </g>
  <metadata>
    <rdf:RDF>
      <cc:Work>
        <dc:format>image/svg+xml</dc:format>
        <dc:type rdf:resource="http://purl.org/dc/dcmitype/StillImage"/>
        <cc:license rdf:resource="http://creativecommons.org/licenses/publicdomain/"/>
        <dc:publisher>
          <cc:Agent rdf:about="http://openclipart.org/">
            <dc:title>Openclipart</dc:title>
          </cc:Agent>
        </dc:publisher>
        <dc:title>Close Button blue</dc:title>
        <dc:date>2010-08-09T02:03:35</dc:date>
        <dc:description>Blue close button</dc:description>
        <dc:source>https://openclipart.org/detail/78619/close-button-blue-by-inky2010</dc:source>
        <dc:creator>
          <cc:Agent>
            <dc:title>inky2010</dc:title>
          </cc:Agent>
        </dc:creator>
        <dc:subject>
          <rdf:Bag>
            <rdf:li>Close</rdf:li>
            <rdf:li>blue</rdf:li>
            <rdf:li>button</rdf:li>
            <rdf:li>buttons</rdf:li>
            <rdf:li>gloss</rdf:li>
            <rdf:li>glossy</rdf:li>
            <rdf:li>icon</rdf:li>
            <rdf:li>inky2010</rdf:li>
          </rdf:Bag>
        </dc:subject>
      </cc:Work>
      <cc:License rdf:about="http://creativecommons.org/licenses/publicdomain/">
        <cc:permits rdf:resource="http://creativecommons.org/ns#Reproduction"/>
        <cc:permits rdf:resource="http://creativecommons.org/ns#Distribution"/>
        <cc:permits rdf:resource="http://creativecommons.org/ns#DerivativeWorks"/>
      </cc:License>
    </rdf:RDF>
  </metadata>
</svg>
